<?xml version="1.0" standalone="no"?>
<!DOCTYPE svg PUBLIC "-//W3C//DTD SVG 20010904//EN"
 "http://www.w3.org/TR/2001/REC-SVG-20010904/DTD/svg10.dtd">
<svg version="1.0" xmlns="http://www.w3.org/2000/svg"
 width="600.000000pt" height="600.000000pt" viewBox="0 0 600.000000 600.000000"
 preserveAspectRatio="xMidYMid meet">
<metadata>
Created by potrace 1.14, written by Peter Selinger 2001-2017
</metadata>
<g transform="translate(0.000000,600.000000) scale(0.100000,-0.100000)"
fill="#000000" stroke="none">
<path d="M1179 5996 c-2 -2 -56 -7 -119 -10 -175 -11 -206 -14 -321 -36 -221
-42 -346 -101 -466 -219 -64 -63 -103 -118 -142 -202 -30 -65 -67 -176 -76
-233 -3 -17 -8 -38 -10 -46 -2 -8 -7 -41 -10 -73 -4 -32 -8 -67 -10 -77 -16
-83 -20 -499 -20 -2105 0 -1620 4 -2010 20 -2090 2 -11 6 -42 9 -70 3 -27 8
-61 11 -75 3 -14 8 -41 11 -60 10 -58 55 -192 84 -251 50 -99 136 -197 227
-260 108 -75 305 -139 473 -155 30 -3 61 -7 68 -9 47 -16 492 -20 2097 -20
1779 0 2009 3 2173 30 21 3 55 9 77 12 114 16 270 74 367 136 52 33 178 152
178 168 0 4 6 14 14 21 17 18 63 108 83 162 46 132 78 309 91 516 4 63 7 932
7 1930 0 1613 -4 2065 -19 2112 -3 7 -7 36 -10 63 -14 136 -55 294 -96 376
-82 160 -207 283 -350 343 -25 10 -54 22 -65 27 -29 13 -163 47 -215 54 -25 4
-52 9 -61 10 -9 2 -52 6 -95 10 -43 4 -95 10 -114 13 -38 6 -3785 14 -3791 8z"/>
</g>
</svg>
